<svg width="163" height="40" viewBox="0 0 163 40" fill="none" xmlns="http://www.w3.org/2000/svg">
<path d="M 58.2 29 V 12.2 H 65.3 C 66.3 12.2 67.2 12.4 68 12.9 C 68.8 13.4 69.4 14 69.8 14.8 C 70.3 15.6 70.6 16.5 70.6 17.6 C 70.6 18.6 70.3 19.5 69.8 20.4 C 69.4 21.2 68.8 21.8 68 22.3 C 67.2 22.8 66.3 23 65.3 23 H 61.7 V 29 H 58.2 Z M 61.6 19.9 H 64.9 C 65.5 19.9 66 19.7 66.4 19.3 C 66.8 18.8 67 18.3 67 17.6 C 67 16.9 66.8 16.4 66.4 16 C 66 15.6 65.5 15.3 64.9 15.3 H 61.6 V 19.9 Z" fill="#494d4b"/>
<path d="M 79 29.2 C 77.7 29.2 76.5 29 75.5 28.4 C 74.5 27.8 73.7 27 73.1 26 C 72.6 25.1 72.3 23.9 72.3 22.6 C 72.3 21.4 72.6 20.2 73.1 19.3 C 73.7 18.3 74.5 17.5 75.5 16.9 C 76.5 16.4 77.7 16.1 79 16.1 C 80.2 16.1 81.4 16.4 82.4 16.9 C 83.4 17.5 84.2 18.3 84.7 19.3 C 85.3 20.2 85.6 21.4 85.6 22.6 C 85.6 23.9 85.3 25.1 84.7 26 C 84.2 27 83.4 27.8 82.4 28.4 C 81.4 29 80.2 29.2 79 29.2 Z M 79 26.4 C 79.6 26.4 80.2 26.2 80.7 25.9 C 81.2 25.6 81.6 25.1 81.9 24.6 C 82.2 24 82.3 23.4 82.3 22.6 C 82.3 21.9 82.2 21.3 81.9 20.7 C 81.6 20.2 81.2 19.7 80.7 19.4 C 80.2 19.1 79.6 18.9 79 18.9 C 78.3 18.9 77.7 19.1 77.2 19.4 C 76.7 19.7 76.3 20.2 76 20.7 C 75.7 21.3 75.6 21.9 75.6 22.6 C 75.6 23.4 75.7 24 76 24.6 C 76.3 25.1 76.7 25.6 77.2 25.9 C 77.7 26.2 78.3 26.4 79 26.4 Z" fill="#494d4b"/>
<path d="M 93.2 29.2 C 92.1 29.2 91.1 29 90.2 28.4 C 89.3 27.8 88.6 27 88.1 26 C 87.6 25.1 87.4 23.9 87.4 22.7 C 87.4 21.4 87.6 20.2 88.1 19.3 C 88.6 18.3 89.3 17.5 90.2 16.9 C 91.1 16.4 92.1 16.1 93.2 16.1 C 94 16.1 94.7 16.2 95.4 16.5 C 96.1 16.8 96.7 17.2 97.1 17.7 V 11.2 H 100.4 V 29 H 97.3 L 97.2 27.5 C 96.8 28 96.2 28.4 95.5 28.7 C 94.8 29.1 94 29.2 93.2 29.2 Z M 93.9 26.5 C 94.9 26.5 95.7 26.2 96.3 25.4 C 96.9 24.7 97.2 23.8 97.2 22.7 C 97.2 21.5 96.9 20.6 96.3 19.9 C 95.7 19.2 94.9 18.8 93.9 18.8 C 93 18.8 92.2 19.2 91.6 19.9 C 90.9 20.6 90.6 21.5 90.6 22.7 C 90.6 23.8 90.9 24.7 91.6 25.4 C 92.2 26.2 93 26.5 93.9 26.5 Z" fill="#494d4b"/>
<path d="M 38.1 19.9 C 38.1 23.1 37.3 26.2 35.8 28.9 C 35.6 29.3 35.4 29.6 35.1 30 C 35 30.1 34.9 30.3 34.7 30.4 C 34.5 30.5 34.3 30.6 34.1 30.7 C 33.9 30.7 33.7 30.7 33.5 30.7 C 33.3 30.6 33.1 30.5 33 30.4 C 32.8 30.3 32.6 30.2 32.5 30 C 32.4 29.8 32.3 29.6 32.3 29.4 C 32.2 29.2 32.2 29 32.3 28.8 C 32.3 28.6 32.4 28.4 32.5 28.3 C 34 26 34.9 23.4 35 20.7 C 35.1 17.9 34.5 15.3 33.2 12.9 C 31.9 10.5 30 8.5 27.7 7.1 C 25.3 5.7 22.7 5 20 5 C 14.8 5 10.1 7.7 7.5 11.8 C 5.9 14.3 5 17.1 5 20 C 5 23 5.9 25.8 7.5 28.3 C 7.7 28.6 7.8 29 7.7 29.4 C 7.6 29.8 7.4 30.2 7 30.4 C 6.7 30.6 6.3 30.7 5.9 30.6 C 5.4 30.6 5.1 30.3 4.9 30 C 3.1 27.3 2.1 24.1 1.9 20.9 C 1.7 17.6 2.5 14.4 4 11.6 C 5.5 8.7 7.7 6.3 10.5 4.6 C 13.3 2.9 16.4 1.9 19.7 1.9 C 19.8 1.9 19.9 1.9 20 1.9 C 24.8 1.9 29.4 3.8 32.8 7.1 C 36.2 10.5 38.1 15.1 38.1 19.9 Z" fill="#494d4b"/>
<path d="M 9.1 22.8 L 11.9 36.9 C 12.1 37.7 12.9 38.3 13.7 38.1 C 14.6 37.9 15.1 37.1 15 36.3 L 12.1 22.2 C 12 21.3 11.1 20.8 10.3 21 C 9.4 21.1 8.9 21.9 9.1 22.8 Z" fill="#04d361"/>
<path d="M 11.8 36.6 L 11.1 36.7 C 10.1 36.9 9 36.7 8 36.1 C 7.1 35.6 6.4 34.7 6.2 33.6 C 6.1 33.5 6.1 33.5 6.1 33.4 L 5.1 28.3 C 4.8 27.1 5.1 26 5.7 25.1 C 6.3 24.1 7.3 23.5 8.4 23.2 L 9.1 23.1 L 10.4 29.3 L 11.8 36.6 Z" fill="#494d4b"/>
<path d="M 11.8 36.6 L 11.1 36.7 C 10.1 36.9 9 36.7 8 36.1 C 7.1 35.6 6.4 34.7 6.2 33.6 C 7.7 32.3 9.1 30.9 10.4 29.3 L 11.8 36.6 Z" fill="#494d4b"/>
<path d="M 36.1 27.1 L 35.8 28.9 C 35.6 29.3 35.4 29.6 35.1 30 C 35 30.1 34.9 30.3 34.7 30.4 C 34.5 30.5 34.3 30.6 34.1 30.7 C 33.9 30.7 33.7 30.7 33.5 30.7 C 33.3 30.6 33.1 30.5 33 30.4 C 32.8 30.3 32.6 30.2 32.5 30 C 32.4 29.8 32.3 29.6 32.3 29.4 C 32.2 29.2 32.2 29 32.3 28.8 C 32.3 28.6 32.4 28.4 32.5 28.3 C 33.6 26.7 34.3 24.9 34.7 23 C 35.3 23.5 35.7 24.1 36 24.8 C 36.2 25.6 36.3 26.3 36.1 27.1 Z" fill="#494d4b"/>
<path d="M 34.3 8.8 L 32.1 11.1 C 30.7 9.2 28.8 7.6 26.7 6.6 C 24.6 5.5 22.3 5 20 5 C 14.8 5 10.1 7.7 7.5 11.8 L 5.2 9.6 C 6.8 7.2 9 5.3 11.5 4 C 14 2.7 16.8 1.9 19.7 1.9 C 19.8 1.9 19.9 1.9 20 1.9 C 22.8 1.9 25.5 2.5 28 3.7 C 30.4 4.9 32.6 6.7 34.3 8.8 Z" fill="#8257e5"/>
<path d="M 27.8 22.2 L 25 36.3 C 24.8 37.1 25.4 37.9 26.2 38.1 C 27.1 38.3 27.9 37.7 28.1 36.9 L 30.9 22.8 C 31.1 21.9 30.5 21.1 29.7 20.9 C 28.8 20.8 28 21.3 27.8 22.2 Z" fill="#04d361"/>
<path d="M 34.9 28.3 L 33.9 33.4 C 33.7 34.5 33 35.5 32.1 36.1 C 31.1 36.7 30 36.9 28.9 36.7 L 28.2 36.6 L 28.9 32.9 L 30.9 23.1 L 31.6 23.2 C 32.7 23.5 33.7 24.1 34.3 25.1 C 34.4 25.2 34.5 25.3 34.5 25.5 C 35 26.3 35.1 27.3 34.9 28.3 Z" fill="#494d4b"/>
<path d="M 34.9 28.3 L 33.9 33.4 C 33.7 34.5 33 35.5 32.1 36.1 C 31.1 36.7 30 36.9 28.9 36.7 L 28.2 36.6 L 28.9 32.9 C 31 30.6 32.9 28.1 34.5 25.5 C 35 26.3 35.1 27.3 34.9 28.3 Z" fill="#494d4b"/>
    <style>
      .heavy { font: bold 26px sans-serif; }
    </style>
    <text class="heavy" textLength="60" x="103" y="29.1" fill="#494d4b">
        Code
    </text>
</svg>
